<svg xmlns="http://www.w3.org/2000/svg" width="48" height="48" fill="none"><style><![CDATA[.B{stroke-width:2}.C{stroke-linejoin:round}.D{stroke-linecap:round}.E{stroke:var(--color-marketing-icon-primary, #2088ff)}.F{stroke:var(--color-marketing-icon-secondary, #79b8ff)}]]></style><path d="M10 1a9 9 0 1 1 0 18 9 9 0 1 1 0-18zm13 18a6 6 0 1 1 0 12 6 6 0 1 1 0-12zm0 16a6 6 0 1 1 0 12 6 6 0 1 1 0-12z" class="B C E"/><path d="M41 35a6 6 0 1 1 0 12 6 6 0 1 1 0-12z" class="B C F"/><g class="E B C"><path d="M25.037 23.607l-3.069 3.065-1.491-1.485" class="D"/><path d="M41 19a6 6 0 1 1 0 12 6 6 0 1 1 0-12z"/><path d="M43.037 23.607l-3.069 3.065-1.491-1.485" class="D"/><path d="M7 6.812a1 1 0 0 1 1.533-.846l5.113 3.221a1 1 0 0 1-.006 1.696l-5.113 3.171A1 1 0 0 1 7 13.204V6.812z"/><path d="M9 19v15c0 3.866 3.177 7 7 7h1" class="D"/></g><path d="M16.949 26a1 1 0 1 0 0-2v2zM8 19.035C8 22.882 11.118 26 14.965 26v-2C12.223 24 10 21.777 10 19.035H8zM14.965 26h1.984v-2h-1.984v2z" fill="var(--color-marketing-icon-primary, #2088ff)"/><path d="M29.055 25h5.945" class="B C D E"/><path d="M21 40a1 1 0 1 1 0 2 1 1 0 1 1 0-2zm4 0a1 1 0 1 1 0 2 1 1 0 1 1 0-2z" fill-rule="evenodd" fill="var(--color-marketing-icon-secondary, #79b8ff)"/><path d="M34.005 41.007l-1.013.033" class="B D F"/></svg>
