<svg xmlns="http://www.w3.org/2000/svg" width="38" height="43" fill="#705df2" fill-rule="evenodd"><path d="M5.735.972l30.277 17.505c2.325 1.344 2.326 4.703 0 6.047L5.734 42.029C3.405 43.375.5 41.691.5 39.006V3.995C.5 1.311 3.405-.376 5.735.972zM4.232 3.569a.49.49 0 0 0-.732.427v35.011a.49.49 0 0 0 .733.426L34.51 21.927c.327-.189.327-.664 0-.853L4.232 3.569z"/><path d="M13.772 9.442L3.81 15.201a.62.62 0 0 0-.31.54v11.518c0 .224.12.43.311.541l9.961 5.759a.62.62 0 0 0 .62 0l9.96-5.758c.192-.111.312-.317.312-.541V15.742c0-.224-.12-.43-.311-.541l-9.961-5.759a.62.62 0 0 0-.62 0zm-1.501-2.598a3.62 3.62 0 0 1 3.621 0l9.961 5.759c1.12.647 1.81 1.845 1.81 3.138V27.26c0 1.294-.689 2.49-1.81 3.138l-9.961 5.759a3.62 3.62 0 0 1-3.622 0L2.31 30.398C1.19 29.75.5 28.552.5 27.259V15.741a3.62 3.62 0 0 1 1.81-3.138l9.961-5.758z"/><path d="M.5 14.958c0-1.352 1.463-2.196 2.633-1.52l11.57 6.69c.553.318.878.904.878 1.52v13.823a1.5 1.5 0 0 1-2.251 1.299L1.384 29.862l-.005-.003C.825 29.541.5 28.954.5 28.338V14.958zm3 2.158l9.081 5.251v10.505L3.5 27.62V17.115z"/><path d="M24.755 13.597c1.3-.751 2.905.194 2.909 1.676v.004 12.957a1.94 1.94 0 0 1-.969 1.679l-.002.001L15.49 36.39a1.94 1.94 0 0 1-2.909-1.679V21.755a1.94 1.94 0 0 1 .97-1.68l.001-.001 11.202-6.477zm-.091 3.518l-9.082 5.252v10.506l9.082-5.251V17.115z"/></svg>