<svg xmlns="http://www.w3.org/2000/svg" width="256" height="257" preserveAspectRatio="xMidYMid"><defs><linearGradient x1="-0.828097821%" y1="7.6518539%" x2="57.6359644%" y2="78.4107719%" id="A"><stop stop-color="#41d1ff" offset="0%"/><stop stop-color="#bd34fe" offset="100%"/></linearGradient><linearGradient x1="43.3760053%" y1="2.24179788%" x2="50.3158848%" y2="89.0299051%" id="B"><stop stop-color="#ffea83" offset="0%"/><stop stop-color="#ffdd35" offset="8.33333%"/><stop stop-color="#ffa800" offset="100%"/></linearGradient></defs><path d="M255.153 37.938L134.897 252.976c-2.483 4.44-8.862 4.466-11.382.048L.874 37.958c-2.746-4.815 1.372-10.647 6.827-9.671l120.385 21.518c.768.137 1.554.136 2.322-.004l117.867-21.483c5.438-.991 9.574 4.796 6.877 9.62z" fill="url(#A)"/><path d="M185.432.063L96.439 17.501a3.27 3.27 0 0 0-2.634 3.014l-5.474 92.457a3.27 3.27 0 0 0 3.997 3.378l24.777-5.718a3.27 3.27 0 0 1 3.936 3.838l-7.361 36.046c-.495 2.426 1.782 4.501 4.151 3.781l15.303-4.65c2.372-.72 4.652 1.36 4.15 3.788l-11.698 56.621c-.732 3.542 3.979 5.473 5.944 2.437l1.312-2.028 72.516-144.719c1.214-2.423-.88-5.186-3.541-4.673l-25.504 4.922a3.27 3.27 0 0 1-3.759-4.115l16.646-57.705a3.27 3.27 0 0 0-3.768-4.113z" fill="url(#B)"/></svg>
