<svg xmlns="http://www.w3.org/2000/svg" viewBox="0 0 256 213"><style><![CDATA[.B{mask:url(#N)}]]></style><defs><linearGradient id="A" x1="12.932%" x2="71.216%" y1="9.052%" y2="81.625%"><stop offset="0%" stop-color="#67337a"/><stop offset="100%" stop-color="#723986"/></linearGradient><linearGradient id="B" x1="91.997%" x2="29.654%" y1="52.448%" y2="52.448%"><stop offset="0%" stop-color="#623274" stop-opacity="0"/><stop offset="100%" stop-color="#542c65"/></linearGradient><linearGradient id="C" x1="91.675%" x2="56.225%" y1="5.599%" y2="79.874%"><stop offset="0%" stop-color="#8a519f"/><stop offset="100%" stop-color="#8a53a0"/></linearGradient><linearGradient id="D" x1="63.479%" x2="0%" y1="48.225%" y2="48.225%"><stop offset="0%" stop-color="#8a529f" stop-opacity=".1"/><stop offset="100%" stop-color="#542c65"/></linearGradient><linearGradient id="E" x1="24.699%" x2="80.097%" y1="31.401%" y2="66.964%"><stop offset="0%" stop-color="#5c2e6d"/><stop offset="100%" stop-color="#6d377b"/></linearGradient><linearGradient id="F" x1="12.346%" x2="81.65%" y1="34.458%" y2="53.652%"><stop offset="0%" stop-color="#612e74"/><stop offset="100%" stop-color="#7f4395"/></linearGradient><linearGradient id="G" x1="100%" x2="100%" y1="0%" y2="69.36%"><stop offset="0%" stop-color="#582c6a"/><stop offset="100%" stop-color="#743983"/></linearGradient><linearGradient id="H" x1="50%" x2="19.624%" y1="74.788%" y2="71.707%"><stop offset="0%" stop-color="#623274" stop-opacity="0"/><stop offset="100%" stop-color="#542c65"/></linearGradient><linearGradient id="I" x1="0%" x2="0%" y1="0%" y2="100%"><stop offset="0%" stop-color="#723a85"/><stop offset="100%" stop-color="#8c519c"/></linearGradient><linearGradient id="J" x1="0%" x2="62.291%" y1="35.927%" y2="46.718%"><stop offset="0%" stop-color="#66397a"/><stop offset="100%" stop-color="#9f69ab"/></linearGradient><linearGradient id="K" x1="72%" x2="0%" y1="48.225%" y2="48.225%"><stop offset="0%" stop-color="#623274" stop-opacity="0"/><stop offset="100%" stop-color="#542c65"/></linearGradient><linearGradient id="L" x1="50%" x2="50%" y1="21.039%" y2="78.192%"><stop offset="0%" stop-color="#5d306e"/><stop offset="100%" stop-color="#9f6aaa"/></linearGradient><path id="M" d="M0 .328h256.003v210.939H0z"/></defs><mask id="N" fill="#fff"><use href="#M"/></mask><path fill="#5b2e6e" d="M0 139.993V.328l64.102 70.084L128.481.328l63.521 69.721L256.003.328v139.987l-63.282 70.952-64.24-69.993-64.241 69.993z" class="B"/><path fill="url(#A)" d="M32.122 105.798l32.118-35.16L0 .329l32.122 105.47z" class="B"/><path fill="url(#B)" d="m16.91-2.999 15.038 31.266.584 85.211H6.644z" transform="rotate(343 19.588 55.24)" class="B"/><path fill="url(#B)" d="m29.723 60.734 30.682 10.082-2.822 40.894-20.409 2.717z" transform="rotate(235 45.064 87.58)" class="B"/><path fill="url(#C)" d="m191.762 70.318 64.241 69.997V.328z" class="B"/><path fill="url(#D)" d="m223.557 50.902 19.757-.491-5.471 75.975-20.002 19.315z" transform="rotate(314 230.577 98.056)" class="B"/><path fill="url(#E)" d="m192.721 211.267 63.282-70.952-87.252-95.881z" class="B"/><path fill="url(#F)" d="m128.481 141.274 64.24 69.993-23.97-166.833z" class="B"/><path fill="url(#G)" d="m64.24 211.267 64.241-69.993V.328z" class="B"/><path fill="url(#H)" d="m64.24 211.267 25.121-27.371 39.12-142.392V.328z" class="B"/><path fill="url(#I)" d="m128.481 141.274 40.27-96.84L128.481.328z" class="B"/><path fill="url(#J)" d="M31.64 105.662l32.605 105.605L128.48.328 31.64 105.662z" class="B"/><path fill="url(#K)" d="m41.813 102.192 28.953-16.944-.247 110.832-25.112 14.748z" transform="rotate(343 56.29 148.038)" class="B"/><path fill="url(#L)" d="m0 140.775 64.24 70.492L.003.328z" class="B"/></svg>
